# xmcd
#
# Track frame offsets:
#	150
#	21645
#	32823
#	55896
#	77373
#	96171
#	118634
#	148050
#	163303
#	184062
#
# Disc length: 2789 seconds
#
# Revision: 0
# Processed by: cddbd v1.4PL0 Copyright (c) Steve Scherf et al.
# Submitted via: dBpowerAMP V4.0
#
DISCID=880ae30a
DTITLE=Kenny G - A tribute to Kenny G 2
DYEAR=1900
DGENRE=Blues
TTITLE0=All in one night
TTITLE1=The chanukah song
TTITLE2=Greens leeves
TTITLE3=Jasmine flower
TTITLE4=The joy of life
TTITLE5=Natural ride
TTITLE6=Sentimental
TTITLE7=Spring breeze
TTITLE8=Tradewinds
TTITLE9=A year ago
EXTD=Marcio Conceicao
EXTT0=
EXTT1=
EXTT2=
EXTT3=
EXTT4=
EXTT5=
EXTT6=
EXTT7=
EXTT8=
EXTT9=
PLAYORDER=
